<svg width="58" height="58" viewBox="0 0 58 58" fill="none" xmlns="http://www.w3.org/2000/svg">
<g filter="url(#filter0_d_6191_381)">
<circle cx="29" cy="25" r="25" fill="#149954"/>
</g>
<path fill-rule="evenodd" clip-rule="evenodd" d="M30.9745 15.0004C31.0175 15.0004 31.0596 15.004 31.1005 15.0109L31.2369 15.0117C31.4409 15.0117 31.6359 15.0947 31.7779 15.2417L36.8439 20.5207C36.9769 20.6597 37.0519 20.8467 37.0519 21.0397V30.3397C37.0559 32.8087 35.0499 34.8397 32.5809 34.8657L24.3999 34.8667C21.9269 34.8237 19.9589 32.7867 20.0009 30.3267V19.4907C20.0579 17.0097 22.1069 15.0117 24.5699 15.0117L30.8485 15.0109C30.8894 15.004 30.9316 15.0004 30.9745 15.0004ZM30.2242 16.5114L24.5729 16.5117C22.9149 16.5117 21.5399 17.8537 21.5009 19.5087V30.3397C21.4719 31.9867 22.7789 33.3387 24.4139 33.3667L24.5609 33.3657H32.5729C34.2149 33.3477 35.5539 31.9907 35.5519 30.3407L35.5512 21.9834L33.5435 21.9844C31.7125 21.9794 30.2245 20.4874 30.2245 18.6594L30.2242 16.5114ZM28.3444 22.7143C28.7584 22.7143 29.0944 23.0503 29.0944 23.4643L29.0942 25.1634L30.7936 25.1641C31.2076 25.1641 31.5436 25.5001 31.5436 25.9141C31.5436 26.3281 31.2076 26.6641 30.7936 26.6641L29.0942 26.6634L29.0944 28.3643C29.0944 28.7783 28.7584 29.1143 28.3444 29.1143C27.9304 29.1143 27.5944 28.7783 27.5944 28.3643L27.5942 26.6634L25.8946 26.6641C25.4806 26.6641 25.1446 26.3281 25.1446 25.9141C25.1446 25.5001 25.4806 25.1641 25.8946 25.1641L27.5942 25.1634L27.5944 23.4643C27.5944 23.0503 27.9304 22.7143 28.3444 22.7143ZM31.7242 17.3524L31.7245 18.6594C31.7245 19.6634 32.5415 20.4814 33.5455 20.4844L34.7282 20.4834L31.7242 17.3524Z" fill="white"/>
<defs>
<filter id="filter0_d_6191_381" x="0" y="0" width="58" height="58" filterUnits="userSpaceOnUse" color-interpolation-filters="sRGB">
<feFlood flood-opacity="0" result="BackgroundImageFix"/>
<feColorMatrix in="SourceAlpha" type="matrix" values="0 0 0 0 0 0 0 0 0 0 0 0 0 0 0 0 0 0 127 0" result="hardAlpha"/>
<feOffset dy="4"/>
<feGaussianBlur stdDeviation="2"/>
<feComposite in2="hardAlpha" operator="out"/>
<feColorMatrix type="matrix" values="0 0 0 0 0 0 0 0 0 0 0 0 0 0 0 0 0 0 0.25 0"/>
<feBlend mode="normal" in2="BackgroundImageFix" result="effect1_dropShadow_6191_381"/>
<feBlend mode="normal" in="SourceGraphic" in2="effect1_dropShadow_6191_381" result="shape"/>
</filter>
</defs>
</svg>
